<svg xmlns="http://www.w3.org/2000/svg" viewBox="0 0 306 344.35" width="100%" height="100%">
  <path fill="#00599C" d="M302.11 81.47L159.68 4.79c-4.06-2.19-8.99-2.19-13.06 0L4.12 81.48c-4.06 2.19-6.53 6.33-6.53 10.78v159.83c0 4.45 2.48 8.59 6.53 10.78l142.47 76.68c4.06 2.19 8.99 2.19 13.06 0l142.43-76.68c4.06-2.19 6.53-6.33 6.53-10.78V92.25c0-4.45-2.47-8.59-6.53-10.78z"/>
  <path fill="#fff" d="M153.15 230.72c-44.18 0-80.01-35.5-80.01-79.28 0-43.79 35.82-79.28 80.01-79.28 22.08 0 42.6 8.97 57.6 23.96l-28.85 22.51c-7.38-7.39-17.61-11.92-28.75-11.92-22.09 0-40.01 17.72-40.01 39.64 0 21.92 17.92 39.65 40.01 39.65 11.14 0 21.37-4.54 28.75-11.92l28.85 22.51c-15 15-35.52 23.97-57.6 23.97z"/>
  <path fill="#fff" d="M246.22 142.8h-15v-15h-15v15h-15v15h15v15h15v-15h15v-15M191.22 142.8h-15v-15h-15v15h-15v15h15v15h15v-15h15v-15"/>
</svg> 