<svg xmlns="http://www.w3.org/2000/svg" viewBox="0 0 377.5 512" width="100%" height="100%">
  <path fill="#5382A1" d="M150.7 270.6c-6 4.5-12.4 8.9-12.4 8.9s6.9 3.6 17.8 6.5c12.6 3.5 28 3.9 46-1.7 0 0-5-4.1-15.5-7.5-11.7-3.9-27.9-4.8-35.9-6.2zm16.1-33.8c-7.7 4.5-13.5 7.8-25.6 13.1-8.5 3.5-33.3 12.8-33.3 12.8s8.8 7.4 28.9 11c15.6 2.8 34.8 1.7 55.8-4 0 0-6.1-5.6-12.9-8.8-11.6-5.4-12.9-24.1-12.9-24.1zm78.8 65.3c34.3-8.9 21.3-31.1 8.5-29-3.1.4-4.5 1-4.5 1s1.1-1.7 3.6-2.5c26.5-9.3 46.9 20.2-8.2 30.9 0 0 .6-.5.6-.4zm-133.7-99.3c-26.3 6.3-26.3 19.5-15.2 23.7 4.3 1.7 10.8 2.8 10.8 2.8s-12 5.1-21.2 1.1c-10.9-4.7-7.7-19.8 25.3-27.8l.3.2zm80.5 63.7c-26.7 0-48.5 3.3-48.5 7.5s21.7 7.5 48.5 7.5 48.5-3.3 48.5-7.5-21.7-7.5-48.5-7.5zm0 26.4c-35 0-69.2 3.1-69.2 6.9 0 3.8 34.2 6.9 69.2 6.9s69.2-3.1 69.2-6.9c0-3.8-34.2-6.9-69.2-6.9zM187 143c12.8-20.4 7.9-38.5-9.5-50.5-6.2-4.3-12.6-7.5-12.6-7.5s3.4-4.3 7.1-6.2c33.9-18.8 60.7 34.3-7.8 64.8-.1 0 15.6-0 22.8-.6zm-32 14.9c0 9.9-2.2 15.1-5 21.8-.3.7 8.7 5.2 14.3 8-4.1 13.5-14.4 31.1-38.3 44.1 0 0 9.9-15.6 10.8-28.8-8.7-5.7-21.9-11.6-21.4-17.7 1.4-15.9 17.6-19.1 33.7-20.5 1.9-.2 3.8-.8 5.9-.9z"/>
  <path fill="#F8981D" d="M233.9 355.6s9.9 8.1-10.8 14.4c-39.2 11.7-163.5 15.5-197.9.5-12.4-5.4 10.9-12.9 18.2-14.5 7.7-1.6 12-1.3 12-1.3-13.8-9.7-89.2 19.1-38.3 27.3 139 22.4 253.3-10.1 216.8-26.4zm-89.8-64.6c-35.5 8.4-88.5 7.4-117.9 2-13.6-2.5 7.5-9.1 7.5-9.1s-12.6 2.7-28 5.1c-15.1 2.3-6.3-7.2 26.4-14 74.7-15.5 136.3 8.5 111.7 15.9l.3.1zM117.1 124c34.9-18.3 58.7-6.8 75.9 11.7 4.8 5.2 14 16.6 14 16.6s-22.7-4.4-36.4-6.3c-16.2-2.1-23.7-2.2-41.3-1.5-24.8 1-12.2-20.5-12.2-20.5zm196.6 337.8c-25.6 4.8-101.7 9-184 4.9 0 0 9.3 7.7 56.9 10.7 72.5 4.7 184-2.6 186.7-37.3 0 0-3.5 13.2-59.6 21.7zm-8.3-102.3c-19.7 37.2-87.3 19.9-140.7 12.3 0 0 7 5.8 43.2 8.9 55.8 4.7 141.4-2.6 118.6-40 0 0 3.5 4.5-21.1 18.8z"/>
</svg> 