<svg xmlns="http://www.w3.org/2000/svg" viewBox="0 0 256 135" width="100%" height="100%">
  <path fill="#8892BF" d="M128 0C93.95 0 72.9 10.85 56.96 22.9c-15.9 12.03-21.6 24.4-21.6 32.7 0 8.3 5.7 20.7 21.6 32.73 15.94 12.05 36.5 22.9 71.04 22.9 34.06 0 55.1-10.86 71.04-22.9 15.9-12.02 21.6-24.42 21.6-32.73 0-8.3-5.7-20.67-21.6-32.7C183.1 10.84 162.06 0 128 0z"/>
  <path fill="#232531" d="M35.36 50.3h9.42c2.77 0 4.67.5 5.72 1.52 1.05 1.02 1.4 2.58 1.06 4.7-.15 1.17-.57 2.28-1.24 3.3-.67 1.03-1.55 1.85-2.63 2.47-1.2.67-2.5 1.12-3.86 1.32-1.04.15-2.6.22-4.7.22H36.5l-1.28 6.95h-9.47l4.27-23.3h5.33v2.84zm5.28 8.85c.83-.13 1.5-.38 2-.77.5-.38.84-.88 1-1.5.25-1 0-1.66-.75-1.98-.73-.32-1.7-.48-2.82-.48h-1.8l-.93 4.72h3.3zM68.25 44.2L65.6 58.8c-.22 1.18-.15 1.96.2 2.36.36.4 1.22.6 2.57.6h5.07c2.2 0 3.95-.37 5.28-1.1 1.33-.75 2.22-1.95 2.65-3.6l2.64-14.65h9.46l-2.72 15c-.57 3.17-1.5 5.67-2.77 7.5-1.28 1.85-3.03 3.26-5.28 4.23-2.24.98-5.14 1.47-8.7 1.47H62.77c-3.3 0-5.67-.68-7.1-2.05-1.4-1.36-1.9-3.4-1.45-6.1L57.1 47.03c.6-3.38 1.88-6.06 3.86-8.04 1.98-1.98 4.94-2.97 8.9-2.97h11.2c3.3 0 5.67.68 7.1 2.04 1.4 1.36 1.9 3.4 1.45 6.1l-.55 3.05H79.6l.24-1.1c.26-1.12.18-1.88-.23-2.28-.42-.4-1.3-.6-2.65-.6h-5.06c-1.5 0-2.62.34-3.4 1-.76.67-1.28 1.77-1.56 3.3l-.7-.33zM119.1 50.3h9.42c2.78 0 4.68.5 5.73 1.52 1.05 1.02 1.4 2.58 1.05 4.7-.14 1.17-.56 2.28-1.23 3.3-.67 1.03-1.55 1.85-2.63 2.47-1.2.67-2.5 1.12-3.87 1.32-1.04.15-2.6.22-4.7.22h-2.62l-1.28 6.95h-9.47l4.28-23.3h5.33v2.84zm5.28 8.85c.83-.13 1.5-.38 2-.77.5-.38.84-.88 1-1.5.26-1 0-1.66-.74-1.98-.74-.32-1.7-.48-2.82-.48h-1.8l-.94 4.72h3.3z"/>
  <path fill="#fff" d="M113.8 38.27h9.43l-1.56 8.03h8.4c3.27 0 5.53.57 6.77 1.7 1.25 1.14 1.63 2.97 1.16 5.5l-2.68 13.2H125.9l2.57-12.6c.23-1.13.23-1.9 0-2.3-.22-.42-.8-.63-1.74-.63h-7.52l-3.3 15.53h-9.45l7.33-28.44zM159.5 47.48c3.27 0 5.52.56 6.76 1.7 1.25 1.14 1.63 2.97 1.15 5.5l-2.68 13.2H155.3l2.56-12.6c.23-1.13.23-1.9 0-2.3-.2-.42-.8-.63-1.72-.63h-7.53l-3.3 15.53h-9.45l5.83-28.44h9.45l-1.56 8.03h8.4z"/>
</svg> 