<svg xmlns="http://www.w3.org/2000/svg" viewBox="0 0 256 221" width="100%" height="100%">
  <path fill="#CC342D" d="M254.6 158.2c-3.9 7.6-8.2 14.2-12.5 20.8-15.3 23-31.9 44.6-48.2 67-3.3 4.5-5.3 3.1-8.3.4-16.4-15.1-32.9-30-49.4-44.7-7.4-6.5-14.8-12.8-22.6-19.5-1 1.4-1.9 2.6-2.8 3.8-16.8 22-33.8 43.9-50.7 65.9-2.6 3.4-4.5 3.5-7.6.5-19.2-18.4-38.7-36.4-58-54.7-5.5-5.3-11-10.9-16.2-16.3-7.5-7.8-14.6-15.8-22.1-23.5-1.2-1.2-3.3-1.8-3.1-4.5 4.1-.8 7.8-2.8 11.8-3.9 38.3-10.6 76.6-21.2 114.9-32.2 20.3-5.8 40.7-12 61.2-17.5 16.5-4.5 33.1-8.1 49.7-12 11.2-2.6 22.5-5 33.7-7.4 1.8-.4 3.5-1 6.5-1.8-5 10.1-9.7 19.8-14.5 29.3-13.2 26.3-26.8 52.7-39.8 79.1-1.3 2.7-2.3 4.1-5.7 2.5-9.5-4.5-19.3-8.2-28.9-12.4-1.3-.6-2.6-1.3-4.9-2.4 5.4 8.9 10.4 17 15.5 25.1 1.3 2.1 2.8 3.1 5.3 3.6 9.5 1.9 18.9 4.2 28.3 6.4 13.6 3.1 27.2 6.2 40.7 9.5 5.7 1.4 11.3 3.1 17.2 4.7z"/>
  <path fill="#A61C16" d="M146.2 182.7c7.8 6.7 15.2 13 22.6 19.5 16.5 14.7 33 29.6 49.4 44.7 3 2.7 5 4.1 8.3-.4 16.4-22.5 33-44 48.2-67 4.3-6.5 8.5-13.1 12.5-20.8-5.9-1.6-11.5-3.3-17.2-4.7-13.5-3.3-27.1-6.4-40.7-9.5-9.4-2.1-18.9-4.5-28.3-6.4-2.5-.5-4-.5-5.3-3.6-5.1-8.1-10.1-16.3-15.5-25.1 2.3 1.1 3.5 1.8 4.9 2.4 9.6 4.2 19.4 7.9 28.9 12.4 3.4 1.6 4.3.2 5.7-2.5 13.1-26.3 26.6-52.7 39.8-79.1 4.9-9.6 9.5-19.2 14.5-29.3-3 .8-4.7 1.4-6.5 1.8-11.3 2.4-22.5 4.8-33.7 7.4-16.6 3.9-33.2 7.5-49.7 12-20.5 5.5-41 11.7-61.2 17.5-38.3 11-76.6 21.6-114.9 32.2-4 1.1-7.7 3.1-11.8 3.9-.2 2.6 1.8 3.2 3.1 4.5 7.5 7.7 14.6 15.7 22.1 23.5 5.2 5.5 10.6 11 16.2 16.3 19.3 18.3 38.8 36.3 58 54.7 3.1 3 5 2.9 7.6-.5 16.8-22 33.8-43.9 50.7-65.9.8-1.2 1.7-2.5 2.8-3.8zM207.6 65.8c-.4-.5-.6-1.1-.9-1.6-4.8-8.7-3.3-18.5 3.4-24.3 6.6-5.8 16.6-5.9 23.4-.2 6.6 5.6 8.3 14.6 4.2 23.4-5.2 11.1-12.6 19.9-22.9 26.4-1.1.7-2.2 1.8-3.6.8-1.2-.8-.3-2.1.2-3.1 5.5-12.5 8.9-25.6 9.7-39.4-3.8 6-9.3 12-13.5 18z"/>
  <path fill="#CC342D" d="M207.6 65.8c4.2-6 9.7-12 13.5-18-.8 13.9-4.2 26.9-9.7 39.4-.5 1-.9 2.3-1.1 3.5 4.9-6 9.8-11.9 14.6-17.9.7-.8 1.4-2.7 2.6-1.9 1.2.8.3 2.4-.2 3.5-5.2 11.3-12.5 20.5-22.9 27.1-1.1.7-2.2 1.2-3.1-.2-.7-1.2.2-1.9.9-2.7 6.2-7.8 10.5-16.6 13.2-26.4-2.9.3-5 2.3-7.3 3.8-8 5.6-16.8 7.2-26.2 4.5-9.7-2.8-15.5-9.7-16.7-19.7-1.2-9.8 3.1-17.8 11.3-23.3 8.7-5.9 18.1-6.5 27.6-2.3 17.2 7.6 34.2 7.6 51.5.4 1.7-.7 3.1-1.9 5.5-1.8-3.3 9.8-8.5 17.6-15.1 24.4-6.3 6.5-13.4 11.8-21.5 15.6-1.8.9-3.7 1.8-5.6 2.7-.9.4-1.9.9-2.9.1-1-.8-.4-1.9 0-2.8 3.9-10.1 9.3-19.3 16.6-27.5-8.3 2.1-16.3 2.1-24.9-1.5 0 0-.1.1-.2.1z"/>
  <path fill="#A61C16" d="M68.1 89.8c-9.2 2.7-18.9 4.3-27.8 8.5 5.2-1.6 10.5-3 15.8-4.7 17.8-5.8 35.6-11.5 53.4-17.1 19.4-6.1 38.8-12.2 58.2-18.1 15-4.6 30.1-9 45.2-13.3 2.9-.8 6-1.1 8.6-2.8-5.8-.2-11.5.4-17.2.9-4.4.4-8.8.6-13.1 1.3-10.7 1.7-21.1 4.9-31.5 7.7-12.6 3.4-25.2 6.9-37.7 10.4-11.7 3.3-23.5 6.4-35.1 10-6.1 1.9-12.3 3.9-18.8 6.1 0 3.7-.1 7.3.1 11z"/>
  <path fill="#810502" d="M68.1 89.8c-.2-3.7-.1-7.3-.1-11 6.5-2.3 12.7-4.2 18.8-6.1 11.7-3.5 23.4-6.7 35.1-10 12.6-3.5 25.1-7 37.7-10.4 10.3-2.8 20.7-6 31.5-7.7 4.3-.7 8.7-.9 13.1-1.3 5.7-.5 11.5-1.1 17.2-.9-2.7 1.7-5.7 2-8.6 2.8-15.1 4.3-30.2 8.7-45.2 13.3-19.4 5.9-38.8 12.1-58.2 18.1-17.8 5.6-35.6 11.3-53.4 17.1-5.3 1.7-10.6 3.1-15.8 4.7 8.9-4.2 18.6-5.8 27.9-8.6z"/>
</svg> 