<svg xmlns="http://www.w3.org/2000/svg" viewBox="0 0 144 144" width="100%" height="100%">
  <path fill="#8f1f1d" d="M122.6 70.1c0-2.9-.2-5.7-.7-8.6l8.8-6.9-8.5-14.6-10.7 2.5c-4.4-4.3-9.6-7.8-15.3-10.2L94.8 22H77.2l-1.4 10.3c-5.7 2.4-10.9 5.9-15.3 10.2l-10.7-2.5-8.5 14.6 8.8 6.9c-.5 2.9-.7 5.7-.7 8.6s.2 5.7.7 8.6l-8.8 6.9 8.5 14.6 10.7-2.5c4.4 4.3 9.6 7.8 15.3 10.2l1.4 10.3h17.6l1.4-10.3c5.7-2.4 10.9-5.9 15.3-10.2l10.7 2.5 8.5-14.6-8.8-6.9c.5-2.9.7-5.7.7-8.6zm-50.6 26c-14.4 0-26-11.6-26-26s11.6-26 26-26 26 11.6 26 26-11.6 26-26 26z"/>
  <circle fill="#f74c00" cx="72" cy="70" r="13"/>
</svg> 